<svg width="88" height="20" viewBox="0 0 88 20" fill="none" xmlns="http://www.w3.org/2000/svg">
<path d="M10 1.61804L11.7696 7.06434L11.8819 7.40983H12.2451H17.9717L13.3388 10.7758L13.0449 10.9894L13.1572 11.3348L14.9268 16.7812L10.2939 13.4152L10 13.2016L9.70611 13.4152L5.0732 16.7812L6.84282 11.3348L6.95507 10.9894L6.66118 10.7758L2.02828 7.40983H7.75486H8.11813L8.23039 7.06434L10 1.61804Z" fill="#FFA41C" stroke="#E68320"/>
<path d="M27 1.61804L28.7696 7.06434L28.8819 7.40983H29.2451H34.9717L30.3388 10.7758L30.0449 10.9894L30.1572 11.3348L31.9268 16.7812L27.2939 13.4152L27 13.2016L26.7061 13.4152L22.0732 16.7812L23.8428 11.3348L23.9551 10.9894L23.6612 10.7758L19.0283 7.40983H24.7549H25.1181L25.2304 7.06434L27 1.61804Z" fill="#FFA41C" stroke="#E68320"/>
<path d="M44 1.61804L45.7696 7.06434L45.8819 7.40983H46.2451H51.9717L47.3388 10.7758L47.0449 10.9894L47.1572 11.3348L48.9268 16.7812L44.2939 13.4152L44 13.2016L43.7061 13.4152L39.0732 16.7812L40.8428 11.3348L40.9551 10.9894L40.6612 10.7758L36.0283 7.40983H41.7549H42.1181L42.2304 7.06434L44 1.61804Z" fill="#FFA41C" stroke="#E68320"/>
<path d="M61 1.61804L62.7696 7.06434L62.8819 7.40983H63.2451H68.9717L64.3388 10.7758L64.0449 10.9894L64.1572 11.3348L65.9268 16.7812L61.2939 13.4152L61 13.2016L60.7061 13.4152L56.0732 16.7812L57.8428 11.3348L57.9551 10.9894L57.6612 10.7758L53.0283 7.40983H58.7549H59.1181L59.2304 7.06434L61 1.61804Z" fill="#FFA41C" stroke="#E68320"/>
<path d="M78 1.61804L79.7696 7.06434L79.8819 7.40983H80.2451H85.9717L81.3388 10.7758L81.0449 10.9894L81.1572 11.3348L82.9268 16.7812L78.2939 13.4152L78 13.2016L77.7061 13.4152L73.0732 16.7812L74.8428 11.3348L74.9551 10.9894L74.6612 10.7758L70.0283 7.40983H75.7549H76.1181L76.2304 7.06434L78 1.61804Z" fill="#FFA41C" stroke="#E68320"/>
</svg>
