<svg width="24" height="21" viewBox="0 0 24 21" fill="none" xmlns="http://www.w3.org/2000/svg">
<path fill-rule="evenodd" clip-rule="evenodd" d="M1.5 10.5C1.5 10.3342 1.57902 10.1753 1.71967 10.0581C1.86032 9.94084 2.05109 9.875 2.25 9.875H19.9395L15.219 5.9425C15.0782 5.82514 14.9991 5.66597 14.9991 5.5C14.9991 5.33403 15.0782 5.17485 15.219 5.0575C15.3598 4.94014 15.5508 4.87421 15.75 4.87421C15.9492 4.87421 16.1402 4.94014 16.281 5.0575L22.281 10.0575C22.3508 10.1156 22.4063 10.1845 22.4441 10.2605C22.4819 10.3364 22.5013 10.4178 22.5013 10.5C22.5013 10.5822 22.4819 10.6636 22.4441 10.7395C22.4063 10.8155 22.3508 10.8844 22.281 10.9425L16.281 15.9425C16.1402 16.0599 15.9492 16.1258 15.75 16.1258C15.5508 16.1258 15.3598 16.0599 15.219 15.9425C15.0782 15.8251 14.9991 15.666 14.9991 15.5C14.9991 15.334 15.0782 15.1749 15.219 15.0575L19.9395 11.125H2.25C2.05109 11.125 1.86032 11.0591 1.71967 10.9419C1.57902 10.8247 1.5 10.6658 1.5 10.5Z" fill="#1E1E1E"/>
</svg>
