<svg width="18" height="18" viewBox="0 0 18 18" fill="none" xmlns="http://www.w3.org/2000/svg">
<path d="M8.9999 0.666504C11.2641 0.666504 11.5466 0.674837 12.4349 0.716504C13.3224 0.758171 13.9266 0.897337 14.4582 1.104C15.0082 1.31567 15.4716 1.60234 15.9349 2.06484C16.3586 2.48142 16.6865 2.98533 16.8957 3.5415C17.1016 4.07234 17.2416 4.67734 17.2832 5.56484C17.3224 6.45317 17.3332 6.73567 17.3332 8.99984C17.3332 11.264 17.3249 11.5465 17.2832 12.4348C17.2416 13.3223 17.1016 13.9265 16.8957 14.4582C16.6871 15.0147 16.3592 15.5187 15.9349 15.9348C15.5182 16.3584 15.0143 16.6863 14.4582 16.8957C13.9274 17.1015 13.3224 17.2415 12.4349 17.2832C11.5466 17.3223 11.2641 17.3332 8.9999 17.3332C6.73573 17.3332 6.45323 17.3248 5.5649 17.2832C4.6774 17.2415 4.07323 17.1015 3.54156 16.8957C2.98517 16.6869 2.48117 16.359 2.0649 15.9348C1.64107 15.5183 1.31317 15.0144 1.10407 14.4582C0.897398 13.9273 0.758232 13.3223 0.716565 12.4348C0.677398 11.5465 0.666565 11.264 0.666565 8.99984C0.666565 6.73567 0.674898 6.45317 0.716565 5.56484C0.758232 4.6765 0.897398 4.07317 1.10407 3.5415C1.3126 2.98499 1.64057 2.48094 2.0649 2.06484C2.48129 1.64086 2.98526 1.31295 3.54156 1.104C4.07323 0.897337 4.67656 0.758171 5.5649 0.716504C6.45323 0.677337 6.73573 0.666504 8.9999 0.666504ZM8.9999 4.83317C7.89483 4.83317 6.83502 5.27216 6.05362 6.05356C5.27222 6.83496 4.83323 7.89477 4.83323 8.99984C4.83323 10.1049 5.27222 11.1647 6.05362 11.9461C6.83502 12.7275 7.89483 13.1665 8.9999 13.1665C10.105 13.1665 11.1648 12.7275 11.9462 11.9461C12.7276 11.1647 13.1666 10.1049 13.1666 8.99984C13.1666 7.89477 12.7276 6.83496 11.9462 6.05356C11.1648 5.27216 10.105 4.83317 8.9999 4.83317ZM14.4166 4.62484C14.4166 4.34857 14.3068 4.08362 14.1115 3.88827C13.9161 3.69292 13.6512 3.58317 13.3749 3.58317C13.0986 3.58317 12.8337 3.69292 12.6383 3.88827C12.443 4.08362 12.3332 4.34857 12.3332 4.62484C12.3332 4.9011 12.443 5.16606 12.6383 5.36141C12.8337 5.55676 13.0986 5.6665 13.3749 5.6665C13.6512 5.6665 13.9161 5.55676 14.1115 5.36141C14.3068 5.16606 14.4166 4.9011 14.4166 4.62484ZM8.9999 6.49984C9.66294 6.49984 10.2988 6.76323 10.7677 7.23207C11.2365 7.70091 11.4999 8.3368 11.4999 8.99984C11.4999 9.66288 11.2365 10.2988 10.7677 10.7676C10.2988 11.2364 9.66294 11.4998 8.9999 11.4998C8.33686 11.4998 7.70097 11.2364 7.23213 10.7676C6.76329 10.2988 6.4999 9.66288 6.4999 8.99984C6.4999 8.3368 6.76329 7.70091 7.23213 7.23207C7.70097 6.76323 8.33686 6.49984 8.9999 6.49984Z" fill="#1E1E1E" fill-opacity="0.75"/>
</svg>
